<svg width="511" height="337" fill="none" xmlns="http://www.w3.org/2000/svg"><path d="M406.2 64.47c-14.67-15.65-26.02-34.33-43.54-47.1-27.53-20.1-67.14-22.07-99.33-9.44s-57.26 38.09-73.78 66.91c-8.7 15.17-15.53 31.72-28.26 44.1-10.77 10.48-24.92 17.16-38.34 24.44-21.64 11.7-42.47 25.83-56.48 45.23-14 19.4-20.26 44.87-11.3 66.73 6.03 14.75 18.19 26.49 30.64 37.11 14.66 12.5 30.4 24.2 48.59 31.64 22.75 9.26 48.02 11.25 72.8 12.2 43.92 1.66 87.91.42 131.65-3.73 35.81-3.38 72.71-9.16 102.67-27.88 41.98-26.2 63.62-74.22 68.5-121.31 1.98-18.84 1.48-38.4-6.27-55.88-18.53-41.8-68.52-32.02-97.56-63.02Z" fill="#EFF1F7"/><path d="M120.67 152.23s-11.16-2-14.28 5.86c-3.13 7.85 0 34.98 0 34.98L148 223l-27.33-70.77Z" fill="#3F3D56"/><path d="m173.72 272.9-16.8 4.91c-2.44.71-5-.66-5.73-3.07a4.55 4.55 0 0 1 3.11-5.64l16.78-4.91a4.55 4.55 0 1 1 2.64 8.72Z" fill="#2BD0D0"/><circle cx="172.5" cy="282.5" r="7.5" fill="#25233A"/><circle cx="171.5" cy="284.5" r="3.5" fill="#3F3D56"/><circle cx="142.5" cy="275.5" r="7.5" fill="#25233A"/><path d="M145 275.5a3.5 3.5 0 1 1-7 0 3.5 3.5 0 0 1 7 0Z" fill="url(#a)"/><circle cx="140.5" cy="285.5" r="7.5" fill="#25233A"/><path d="M146 285.5a3.5 3.5 0 1 1-7 0 3.5 3.5 0 0 1 7 0Z" fill="#3F3D56"/><path d="m174.68 279.91-34.12-6.99a4.52 4.52 0 0 1 1.76-8.83l34.12 6.97a4.52 4.52 0 0 1-1.76 8.85Z" fill="#2BD0D0"/><path d="M154 225h9v40.23c0 2.63-2.01 4.77-4.5 4.77-2.48 0-4.5-2.14-4.5-4.77V225Z" fill="#2BD0D0"/><path d="m156.7 276.9-16.78 4.91c-2.44.71-5-.66-5.73-3.07a4.55 4.55 0 0 1 3.11-5.65l16.79-4.9c2.44-.71 5 .66 5.72 3.06a4.55 4.55 0 0 1-3.1 5.65Z" fill="#2BD0D0"/><path d="m160 277.26-2.08.55a5.8 5.8 0 0 1-1.92.17l.87-.23c.6-.15 1.17-.4 1.67-.75l1.46.26Z" fill="url(#b)"/><path d="M177 267.29c0 .99-.35 1.95-1 2.71l-14-2.77c.35-.47.6-1 .75-1.56l8.63-2.5a4.5 4.5 0 0 1 3.35.37 4.32 4.32 0 0 1 2.27 3.75Z" fill="url(#c)"/><path opacity=".31" d="M153.15 266.38c-.1-.35-.15-.7-.15-1.06V226h3.96v42.38c-.04.2-.02.42.04.62a6.13 6.13 0 0 0-1.9-.34c-.46-.03-.92-.03-1.38 0l.28-.07c.18-.03-.62-1.4-.85-2.2Z" fill="url(#d)"/><path opacity=".31" d="M177.52 279.04a4.3 4.3 0 0 1-3.02.47l-15.06-3.12-1.25-.25c-.43.34-.91.59-1.43.74l-.75.23-15.47 4.7a4.45 4.45 0 0 1-5.54-3.08 3.75 3.75 0 0 0 4.85.29c1.9-1.34 9.41-3.35 13.67-4.42a5.3 5.3 0 0 0 3.98-4.6c.71.79 2.02 1.67 4.37 2.42 5.8 1.82 15.23 3.03 15.23 3.03s1.7 1.71.42 3.59Z" fill="url(#e)"/><path d="M179 278c-.26.39-.6.73-1 1l1-1Z" fill="url(#f)"/><path d="M153.87 266.46c.18.81.57 1.56 1.13 2.17l-.43.1L140.4 273a4.57 4.57 0 0 1-3.36-4.95c.25-2.27 2.12-4 4.37-4.05.3 0 .6.03.9.1l11.57 2.36Z" fill="url(#g)"/><path d="M175 75.82s-.19-14.06-11.47-12.85c-11.28 1.21-10.42-3.44-15.24-2.93-4.81.51-10.41 5.26-8.8 11.13 1.6 5.87-4.26 7.18-8.1 11.64-3.86 4.45.9 8.1 7.38 12.45 6.49 4.35-.4 3.22 3.45 10.1 3.84 6.9 16.86-1.9 16.86-1.9L175 75.82Z" fill="#503164"/><path d="m82.84 309.73 7.95.27v-63.61s.4-16.45 15.9-18.1c15.5-1.65 156.04-22.03 156.04-22.03s5.57-.6 8.78 10.1c3.2 10.71 6.33 52.8 6.33 52.8l43.14 5.81s1.14-74.33-14.44-78.44c-15.58-4.1-219.3 16.8-219.3 16.8s-15.11 78.96-4.4 96.4Z" fill="#2BD0D0"/><path opacity=".2" d="m82.84 309.73 7.95.27v-63.61s.4-16.45 15.9-18.1c15.5-1.65 156.04-22.03 156.04-22.03s5.57-.6 8.78 10.1c3.2 10.71 6.33 52.8 6.33 52.8l43.14 5.81s1.14-74.33-14.44-78.44c-15.58-4.1-219.3 16.8-219.3 16.8s-15.11 78.96-4.4 96.4Z" fill="url(#h)"/><path d="M42 220.48s3.9-21.59 31.31-27.25l193.52-22.19s19-.79 27.69 4.48c8.69 5.27 21.1 9.63 26.18 33.46 5.09 23.83 6.3 64.54 6.3 64.54l-4.81.75s-7.02-73.72-14.46-78.38c-7.44-4.67-208.6 23.96-208.6 23.96s-13.95 2.78-15.16 23.48c-1.22 20.7 0 65.67 0 65.67L42 292.04v-71.56Z" fill="#2BD0D0"/><path opacity=".19" d="M241.58 179.92c-10.03-1.28-20.14-2.21-30.25-1.84-7.6.3-15.14 1.33-22.67 2.36l-66.43 9.1c-1.12.16-2.4.41-2.97 1.39-1.08 1.85 1.46 3.68 3.52 4.39 22.09 7.59 45.68 15.28 68.42 9.86 10.4-2.47 20.05-7.61 30.6-9.4 10.53-1.78 21.36-.14 31.88-1.82 9.89-1.58 19.3-6.08 29.33-6.12 3.07 0 6.24.39 9.15-.56 2.92-.96 5.5-3.88 4.69-6.78-9.41-.33-19.98-2.03-29.2-.18-9.14 1.83-16.92-.4-26.07-.4Z" fill="url(#i)"/><path d="m181 190.59.38 1.4s11.38 6.79 11.31 7c-.07.22 47.21-10.82 47.21-10.82L241 185l-60 5.59Z" fill="#2BD0D0"/><path d="m181 190.59.38 1.4s11.38 6.79 11.31 7c-.07.22 47.21-10.82 47.21-10.82L241 185l-60 5.59Z" fill="url(#j)"/><path d="m182 191.11 42.34-9.11 17.66 3.45L193.9 197l-11.9-5.89Z" fill="#2BD0D0"/><path d="m182 191.11 42.34-9.11 17.66 3.45L193.9 197l-11.9-5.89Z" fill="url(#k)"/><path d="m168.22 198.66 9.64.34s2.45.15 3.08-1.81c.63-1.97-3.93-6.11-4.42-6.19-.48-.08-13.17 3.48-11.34 7.04l3.04.62Z" fill="#2BD0D0"/><path d="m168.22 198.66 9.64.34s2.45.15 3.08-1.81c.63-1.97-3.93-6.11-4.42-6.19-.48-.08-13.17 3.48-11.34 7.04l3.04.62Z" fill="url(#l)"/><path d="m54 296.73-4.8 15c-13.92 5.1-25.76 0-25.76 0L20 296s17.36 5.93 34 .73Z" fill="#2BD0D0"/><path d="m54 296.73-4.8 15c-13.92 5.1-25.76 0-25.76 0L20 296s17.36 5.93 34 .73Z" fill="url(#m)"/><path d="m59 283-1.55 11.79-3.91 2.09c-16.69 5.16-34.13-.72-34.13-.72l-3-2.29L15 283h44Z" fill="#2BD0D0"/><path d="m59 283-1.55 11.79-3.91 2.09c-16.69 5.16-34.13-.72-34.13-.72l-3-2.29L15 283h44Z" fill="url(#n)"/><ellipse cx="37" cy="283" rx="22" ry="4" fill="#2BD0D0"/><ellipse cx="37" cy="283" rx="22" ry="4" fill="url(#o)"/><path d="M27.16 194.91c-2.18-1.03-4.52-1.8-6.4-3.31-3.81-3.06-4.77-8.33-5.96-13.06-1.2-4.73-3.5-9.93-8.19-11.28-1.75-.5-3.81-.3-5.15.94-1.4 1.31-1.69 3.48-1.3 5.38.38 1.91 1.32 3.62 2.04 5.43 1.7 4.2 2.2 8.78 1.49 13.25-.6 3.66-2 7.38-1.1 10.97 1.54 6.1 9.23 9.68 9.44 15.96.15 4.24-3.35 8.16-2.55 12.33.58 3.1 3.43 5.5 3.58 8.64.17 3.56-3.2 6.57-3.03 10.12.16 3.56 3.72 5.94 6.04 8.74a14.54 14.54 0 0 1 3.3 8.3c.13 1.89-.12 3.86.5 5.66.46 1.31 1.36 2.43 2.06 3.61.78 1.28 1.36 2.66 2.3 3.85a9.43 9.43 0 0 0 10.08 3.16c.72-4.73.09-9.55.29-14.33.4-9.25 3.9-18.58 1.66-27.57-.83-3.3-2.41-6.42-2.7-9.8-.24-3.03.56-6.02 1.13-9 1.15-6.15 1.14-12.5.66-18.73-.37-4.93-3.85-7.2-8.19-9.26Z" fill="#2BD0D0"/><path d="M40.23 219.18c-.04 4.12.9 8.38-.41 12.3-1 2.97-3.16 5.4-4.29 8.31-2.58 6.74.9 14.29.19 21.48-.3 2.96-1.3 5.8-1.94 8.72a35.26 35.26 0 0 0-.57 11.2 2.83 2.83 0 0 0 2.23 2.96c2.2.85 4.46 1.47 6.78 1.85a18.3 18.3 0 0 1 2.31-12.64c3.55-5.88 10.43-9.83 11.72-16.57.86-4.57-1.16-9.2-1.01-13.85a15 15 0 0 1 3-8.54c1.68-2.2 3.93-3.89 5.48-6.17 3.73-5.48 2.57-12.82 1.46-19.38-1.1-6.56-1.75-14.11 2.63-19.09 1.39-1.57 3.2-2.75 4.45-4.42 2.8-3.75 2.09-9.52-1.16-12.86-3.26-3.35-8.5-4.27-12.92-2.8a9.32 9.32 0 0 0-4.71 3.23c-2.24 3.21-1.34 7.6-.4 11.4.83 3.31 1.5 7.13.37 10.47-.85 2.49-3 3.83-4.81 5.56a26.6 26.6 0 0 0-8.4 18.84Z" fill="#2BD0D0"/><path d="M36.36 255.78c-.65 4.49-1.57 9.01-1.76 13.5v.46a34.92 34.92 0 0 0-.67 11.55c.02.6.18 1.2.45 1.75l-.08.56a9.43 9.43 0 0 1-10.09-3.16c-.9-1.19-1.52-2.57-2.29-3.85-.72-1.19-1.6-2.3-2.06-3.62-.62-1.8-.37-3.76-.5-5.66a14.53 14.53 0 0 0-3.3-8.3c-2.33-2.78-5.89-5.11-6.05-8.73-.16-3.61 3.2-6.56 3.04-10.12-.16-3.14-3-5.55-3.59-8.64-.8-4.17 2.72-8.1 2.56-12.34-.21-6.28-7.9-9.85-9.45-15.95-.9-3.6.51-7.31 1.1-10.98.72-4.46.21-9.04-1.47-13.24-.72-1.8-1.66-3.5-2.04-5.42-.39-1.91-.1-4.07 1.3-5.39 1.36-1.25 3.4-1.45 5.15-.94 4.7 1.35 7 6.57 8.2 11.3 1.19 4.73 2.15 10 5.95 13.06 1.88 1.51 4.23 2.28 6.41 3.31 4.34 2.05 7.82 4.33 8.2 9.22.44 6.22.49 12.58-.67 18.73-.56 2.98-1.36 5.97-1.12 9 .24 3.02 1.56 5.87 2.42 8.8l.27 1c1.14 4.65.77 9.36.09 14.1Z" fill="#30C59B"/><path d="M33.72 282c-.3-.53-.47-1.1-.5-1.7a31.63 31.63 0 0 1 .71-11.3c-.17 4.34.38 8.72-.21 13Z" fill="url(#p)"/><path d="M72.25 185.34c-1.26 1.67-3.07 2.85-4.46 4.42-4.38 4.97-3.74 12.53-2.63 19.09 1.11 6.56 2.28 13.9-1.46 19.38-1.55 2.26-3.81 3.98-5.48 6.17a14.98 14.98 0 0 0-3.02 8.54c-.14 4.65 1.88 9.28 1.01 13.85-1.28 6.74-8.18 10.7-11.73 16.56a18.3 18.3 0 0 0-2.3 12.65 34.5 34.5 0 0 1-6.77-1.85 3.64 3.64 0 0 1-1.57-.96 1.67 1.67 0 0 1-.17-.23 4.28 4.28 0 0 1-.47-1.74c-.4-3.74-.2-7.53.6-11.21l.07-.33c.64-2.8 1.58-5.53 1.87-8.39.15-1.85.11-3.71-.11-5.55.67-4.75 1.04-9.45-.1-14.06a25.3 25.3 0 0 0-.27-1c.08-.29.18-.58.3-.86 1.12-2.92 3.3-5.35 4.28-8.32 1.3-3.91.38-8.18.41-12.3.06-7.12 3.24-14 8.36-18.86 1.82-1.73 3.96-3.07 4.8-5.56 1.14-3.34.46-7.16-.35-10.47-.96-3.8-1.86-8.19.39-11.4a9.25 9.25 0 0 1 4.72-3.23c4.41-1.47 9.68-.55 12.94 2.8 3.25 3.34 3.94 9.13 1.14 12.86Z" fill="#30C59B"/><path d="M152.83 114.45s-18.8 2.91-27.5 23.69c-8.7 20.77-4.17 46.5-4.02 48.77.15 2.27 26.65 12.09 34.22 12.09 7.58 0 9.16-7.6 9.16-7.6l-13.39-5.71 40.67-4.71h7.3l-4.02 6.8s7.93.83 13.24 1.02c5.3.19 8.9-10.32 9.5-15.55.6-5.23-23.43-51.1-27.02-53.81-3.59-2.72-13.33-9.36-38.14-4.99Z" fill="#2BD0D0"/><path d="M175.85 74.92s3.44 1.93 3.13 8.15c-.3 6.22-2.25 15.58-4.2 18-1.96 2.43-8.8 3.38-8.8 3.38s3.73 8.82 6.51 11.1c2.78 2.27-2.79 10.65-8.2 7.9-5.42-2.75-11.7-9.66-11.7-9.66s4.52-8.32 3-12.7c-1.53-4.38-7.36-19.75-3-23.94 4.37-4.2 13.79-10.22 23.26-2.23Z" fill="url(#q)"/><path opacity=".25" d="M145.89 144 143 180.33l8.82 4.67 7.18-1.26-8.95-11.1-4.16-28.64ZM193 142s11.94 28.79 6.65 39l-4.08-.8L193 142Z" fill="#fff"/><path d="M160.1 189.7s-4.63 3.85-2.57 6.84c2.07 3 4.53 2.91 6.6 1.57 2.05-1.34 6.09-4.52 10.9-3.06 4.81 1.46 5.98 2.39 5.98 2.39s2.54-1.54 1.88-3.1c-.66-1.54-5.7-6.56-7.15-7.21-1.46-.65-7.52 1.35-7.52 1.35s-4.44-1.17-8.13 1.22Z" fill="url(#r)"/><path d="M200.8 181.06s-4.26.51-5.34 3.31c-1.07 2.8-1.46 3.14-1.46 3.14s2.4.46 3.4-.84 2.04-.76 2.04-.76l-.3 1.67s6.54.99 9.49-.07 4.22-2.3 4.22-2.3l1.15-2.83s-2.79-2.02-4.89-2.33c-2.1-.31-8.32 1.01-8.32 1.01Z" fill="url(#s)"/><path d="M223.4 211s14.84 11.35 13.52 26.71a52556.3 52556.3 0 0 0-3.26 38.16s-5.98 2.54-9.94 0c-3.96-2.53-6.36-37.18-8.33-40.49-1.96-3.3-13.77-18.23-26.39-19.51l34.4-4.87Z" fill="#25233A"/><path d="M149 222.16s7.04 6.73 19.6 8.84c12.54 2.11 18.4 3.88 22.23 14.7 3.84 10.8 7.52 34.09 8.72 36.69 1.2 2.6 6.33 1.27 6.33 1.27s2.9-3.33 2.9-21.84c0-25.8 1.78-31.09-4.67-37.57S191.8 216 191.8 216L149 222.16Z" fill="#3F3D56"/><path d="m199 284 1.24 9.46h2.3s14.9.8 15.37.45c.47-.34-.72-7.5-6.36-7.29-5.65.2-6.02-1.35-6.02-1.35L199 284ZM225 276.77l2.34 9.23 25.63-3.47s.9-6.07-7.22-5.46c-2.14.15-3.73 1.64-6.3 1.65-2.58.01-5.05-1.03-6.35-2.72l-8.1.77Z" fill="#25233A"/><path d="m313.11 158.8-96.65 5.2a4.25 4.25 0 0 1-4.46-4.02V91.1a5.1 5.1 0 0 1 5-5.1l96.25-2a4.65 4.65 0 0 1 4.75 4.57v65.07a5.18 5.18 0 0 1-4.89 5.17Z" fill="#2BD0D0"/><path d="m319.11 158.8-96.66 5.2a4.25 4.25 0 0 1-4.45-4.03V91.1a5.1 5.1 0 0 1 4.99-5.1l96.27-2c2.56-.05 4.69 2 4.74 4.57v65.07a5.18 5.18 0 0 1-4.89 5.17Z" fill="#2BD0D0"/><path d="m319.11 158.8-96.66 5.2a4.25 4.25 0 0 1-4.45-4.03V91.1a5.1 5.1 0 0 1 4.99-5.1l96.27-2c2.56-.05 4.69 2 4.74 4.57v65.07a5.18 5.18 0 0 1-4.89 5.17Z" fill="url(#t)"/><path d="M289.85 185.38 265.13 188s-7.52-1.51-7.11-2.62c.4-1.11 8.27-2.18 8.27-2.18v-44.68c-.07-.1-1.1-1.42-3.94-2.25-.55-.17-1.1-.3-1.67-.4a4.96 4.96 0 0 1-1.4-.41c-1.7-.87.17-2.39 2.79-2.46.41-.01.82.01 1.23.08h19s7.2 2.01 7.55 12.09c.34 10.08 0 40.2 0 40.2Z" fill="#3A3054"/><path d="m270 185.47-4.71 2.53s-7.69-1.51-7.27-2.62c.41-1.11 8.46-2.18 8.46-2.18v-44.68c-.1-.1-1.27-1.3-4.02-2.26a20.84 20.84 0 0 0-3.14-.8c-1.73-.88.18-2.4 2.85-2.46 2.28.3 6.77 2.74 7.06 4.12.29 1.4.77 48.35.77 48.35Z" fill="#51466B"/><path d="M179 279c-.88 1-1.3 1.37-.77.55.27-.16.53-.35.77-.55Z" fill="url(#u)"/><defs><linearGradient id="a" x1="138" y1="279" x2="145" y2="279" gradientUnits="userSpaceOnUse"><stop stop-color="#183866"/><stop offset="1" stop-color="#1A7FC1"/></linearGradient><linearGradient id="b" x1="156" y1="278" x2="160" y2="278" gradientUnits="userSpaceOnUse"><stop/><stop offset=".99" stop-opacity=".01"/></linearGradient><linearGradient id="c" x1="178.99" y1="98.71" x2="186.52" y2="113.8" gradientUnits="userSpaceOnUse"><stop/><stop offset=".99" stop-opacity=".01"/></linearGradient><linearGradient id="d" x1="196.02" y1="-47.83" x2="165.69" y2="-47.9" gradientUnits="userSpaceOnUse"><stop/><stop offset=".99" stop-opacity=".01"/></linearGradient><linearGradient id="e" x1="241.25" y1="74.47" x2="233.42" y2="39.97" gradientUnits="userSpaceOnUse"><stop/><stop offset=".99" stop-opacity=".01"/></linearGradient><linearGradient id="f" x1="201.92" y1="111.16" x2="199.94" y2="110.53" gradientUnits="userSpaceOnUse"><stop/><stop offset=".99" stop-opacity=".01"/></linearGradient><linearGradient id="g" x1="175.07" y1="78.81" x2="163.62" y2="91.46" gradientUnits="userSpaceOnUse"><stop/><stop offset=".99" stop-opacity=".01"/></linearGradient><linearGradient id="h" x1="355.24" y1="30.12" x2="22.07" y2="-42.23" gradientUnits="userSpaceOnUse"><stop/><stop offset="1" stop-opacity=".01"/></linearGradient><linearGradient id="i" x1="144.22" y1="180.51" x2="322.22" y2="180.51" gradientUnits="userSpaceOnUse"><stop stop-color="#183866"/><stop offset="1" stop-color="#1A7FC1"/></linearGradient><linearGradient id="j" x1="51.87" y1="167.81" x2="52.89" y2="239.63" gradientUnits="userSpaceOnUse"><stop/><stop offset=".99" stop-opacity=".01"/></linearGradient><linearGradient id="k" x1="133.7" y1="185.28" x2="139.88" y2="216.92" gradientUnits="userSpaceOnUse"><stop/><stop offset=".99" stop-opacity=".01"/></linearGradient><linearGradient id="l" x1="161.33" y1="192.13" x2="160.93" y2="204.43" gradientUnits="userSpaceOnUse"><stop/><stop offset=".99" stop-opacity=".01"/></linearGradient><linearGradient id="m" x1="86.04" y1="41.89" x2="56.27" y2="37.72" gradientUnits="userSpaceOnUse"><stop/><stop offset=".99" stop-opacity=".01"/></linearGradient><linearGradient id="n" x1="90.39" y1="61.21" x2="66.72" y2="54.92" gradientUnits="userSpaceOnUse"><stop/><stop offset=".99" stop-opacity=".01"/></linearGradient><linearGradient id="o" x1="-129.94" y1="266.87" x2="-130.37" y2="328.77" gradientUnits="userSpaceOnUse"><stop/><stop offset=".99" stop-opacity=".01"/></linearGradient><linearGradient id="p" x1="62.21" y1="56.71" x2="58.69" y2="56.8" gradientUnits="userSpaceOnUse"><stop/><stop offset=".99" stop-opacity=".01"/></linearGradient><linearGradient id="q" x1="150.99" y1="124.01" x2="179" y2="124.01" gradientUnits="userSpaceOnUse"><stop stop-color="#ECC4D7"/><stop offset=".42" stop-color="#EFD4D1"/><stop offset="1" stop-color="#F2EAC9"/></linearGradient><linearGradient id="r" x1="182.75" y1="173.41" x2="208.75" y2="173.41" gradientUnits="userSpaceOnUse"><stop stop-color="#ECC4D7"/><stop offset=".42" stop-color="#EFD4D1"/><stop offset="1" stop-color="#F2EAC9"/></linearGradient><linearGradient id="s" x1="218.86" y1="177.24" x2="238.86" y2="177.24" gradientUnits="userSpaceOnUse"><stop stop-color="#ECC4D7"/><stop offset=".42" stop-color="#EFD4D1"/><stop offset="1" stop-color="#F2EAC9"/></linearGradient><linearGradient id="t" x1="305.77" y1="152.48" x2="222.19" y2="249.85" gradientUnits="userSpaceOnUse"><stop stop-color="#362958" stop-opacity=".5"/><stop offset="1" stop-color="#34313D" stop-opacity=".01"/></linearGradient><linearGradient id="u" x1="218.13" y1="-63.83" x2="216.96" y2="-64.27" gradientUnits="userSpaceOnUse"><stop/><stop offset=".99" stop-opacity=".01"/></linearGradient></defs></svg>