<svg width="121" height="33" fill="none" xmlns="http://www.w3.org/2000/svg"><path fill-rule="evenodd" clip-rule="evenodd" d="M34.17 24.82h5.44V13.4c0-.77-.07-1.56-.2-2.37-.14-.8-.4-1.53-.8-2.17a4.63 4.63 0 0 0-1.7-1.6A5.85 5.85 0 0 0 34 6.63a7.4 7.4 0 0 0-3.55.87 6.79 6.79 0 0 0-2.6 2.46V0H22.4v24.82h5.44V14.59c.16-.48.39-.91.68-1.3.3-.38.62-.72.97-1s.72-.5 1.1-.64c.37-.15.71-.23 1.03-.23.8 0 1.41.28 1.87.82.45.54.68 1.4.68 2.55v10.03ZM15.47 7.24c.4.25.65.42.71.51l2.45-4.62a28.4 28.4 0 0 0-1.78-.95A16.76 16.76 0 0 0 12.4.7C11.59.56 10.77.48 9.93.48c-1.2 0-2.34.17-3.42.5A8.43 8.43 0 0 0 3.67 2.5a7.27 7.27 0 0 0-2.65 5.83c0 .9.13 1.7.4 2.38a5 5 0 0 0 1.18 1.8c.53.52 1.2.98 2.02 1.38a20.12 20.12 0 0 0 3.87 1.4l1.7.49c.57.17 1.07.36 1.5.56.53.23.94.5 1.23.8.3.3.44.66.44 1.12 0 1.2-.98 1.8-2.96 1.8-.93 0-1.84-.12-2.75-.37-.9-.25-1.73-.54-2.47-.85-.73-.32-1.35-.64-1.85-.96-.5-.31-.8-.53-.88-.64L0 22.1c.7.48 1.47.9 2.3 1.26a21.61 21.61 0 0 0 5.28 1.53c.93.13 1.84.2 2.72.2 1.16 0 2.28-.13 3.37-.39a8.55 8.55 0 0 0 2.89-1.26 6.45 6.45 0 0 0 2.02-2.28c.51-.94.77-2.09.77-3.45 0-1.1-.18-2.06-.53-2.85a5.65 5.65 0 0 0-1.5-2.02 8.4 8.4 0 0 0-2.36-1.4 28.89 28.89 0 0 0-3.93-1.26l-1.4-.39a8.8 8.8 0 0 1-1.59-.6 2.85 2.85 0 0 1-.95-.72 1.6 1.6 0 0 1-.32-1.02c0-1.34 1-2.01 2.99-2.01a8 8 0 0 1 2.17.3 14.81 14.81 0 0 1 3.54 1.5Zm36.48 17.92c-1.52 0-2.87-.25-4.06-.75a8.54 8.54 0 0 1-4.86-4.98 9.97 9.97 0 0 1 0-7.04 8.54 8.54 0 0 1 4.86-5c1.19-.5 2.54-.76 4.06-.76 1.52 0 2.87.25 4.04.76a8.75 8.75 0 0 1 4.86 5 9.97 9.97 0 0 1 .02 7.04 8.54 8.54 0 0 1-4.86 4.98c-1.19.5-2.54.75-4.06.75Zm-2.86-5.86a4.94 4.94 0 0 1-1.12-3.39c0-.68.1-1.3.3-1.88.21-.58.49-1.08.84-1.48a3.7 3.7 0 0 1 2.84-1.3 3.6 3.6 0 0 1 2.82 1.28 4.94 4.94 0 0 1 1.12 3.38c0 .68-.1 1.31-.3 1.89-.2.58-.49 1.07-.84 1.48a3.59 3.59 0 0 1-2.8 1.3c-1.16-.01-2.11-.44-2.86-1.29Zm26.66-7.67c-1.32.02-2.5.24-3.57.64a4.35 4.35 0 0 0-2.32 1.84v10.71h-5.44V6.97h5v3.6a7.58 7.58 0 0 1 2.37-2.82 5.45 5.45 0 0 1 3.07-1.05h.55c.11 0 .22 0 .34.03v4.9Zm11.5 13.12c.97-.27 1.82-.56 2.57-.88l-1.05-4.32c-.32.16-.7.3-1.13.44-.43.14-.85.2-1.25.2-.46 0-.83-.12-1.13-.39-.29-.26-.44-.68-.44-1.27v-7.45h3.64V6.97h-3.64V1.29h-5.44v5.68H77.1v4.11h2.28v9.32c0 .86.13 1.6.4 2.21a3.81 3.81 0 0 0 2.65 2.3c.6.16 1.24.25 1.92.25.97 0 1.94-.14 2.9-.4ZM92.1 0h5.44v18.46c0 1.36.57 2.04 1.73 2.04a3.87 3.87 0 0 0 1.8-.47l.72 4.08a12.4 12.4 0 0 1-4.83 1.02c-1.57 0-2.77-.41-3.6-1.23-.84-.81-1.26-2-1.26-3.53V0Zm12.73 27.85c-.4-.07-.82-.19-1.28-.34v4.65a7.5 7.5 0 0 0 2.8.51 7.05 7.05 0 0 0 6.9-4.96l6.8-20.74h-5.1l-3.58 13.2-4.15-13.2h-5.6l6.8 17.85a6.8 6.8 0 0 1-1 2.45c-.35.45-.86.68-1.52.68-.32 0-.68-.04-1.07-.1Z" fill="#34313D"/></svg>